<svg xmlns="http://www.w3.org/2000/svg" width="38" height="38" viewBox="0 0 38 38" fill="none">
    <path d="M19 27.3125C18.7933 27.3125 18.5902 27.2585 18.4107 27.1559L8.01563 21.2147C7.9253 21.1625 7.82283 21.1351 7.71853 21.1351C7.61423 21.1352 7.51178 21.1627 7.4215 21.2149C7.33121 21.2671 7.25627 21.3422 7.20422 21.4326C7.15217 21.523 7.12485 21.6255 7.125 21.7298V27.3125C7.12482 27.5244 7.18138 27.7326 7.28878 27.9153C7.39619 28.098 7.55055 28.2486 7.73582 28.3516L18.4233 34.2891C18.5997 34.3871 18.7982 34.4385 19 34.4385C19.2018 34.4385 19.4003 34.3871 19.5767 34.2891L30.2642 28.3516C30.4495 28.2486 30.6038 28.098 30.7112 27.9153C30.8186 27.7326 30.8752 27.5244 30.875 27.3125V21.7298C30.8752 21.6255 30.8478 21.523 30.7958 21.4326C30.7437 21.3422 30.6688 21.2671 30.5785 21.2149C30.4882 21.1627 30.3858 21.1352 30.2815 21.1351C30.1772 21.1351 30.0747 21.1625 29.9844 21.2147L19.5893 27.1559C19.4098 27.2585 19.2067 27.3125 19 27.3125Z" fill="white"/>
    <path d="M36.8066 14.1387V14.1305C36.7874 13.9423 36.7235 13.7614 36.6202 13.6028C36.5169 13.4443 36.3772 13.3127 36.2128 13.2191L19.5878 3.7191C19.4083 3.61652 19.2052 3.56256 18.9985 3.56256C18.7918 3.56256 18.5887 3.61652 18.4092 3.7191L1.78422 13.2191C1.60252 13.323 1.45151 13.473 1.34648 13.6541C1.24144 13.8351 1.18613 14.0407 1.18613 14.25C1.18613 14.4593 1.24144 14.6649 1.34648 14.8459C1.45151 15.0269 1.60252 15.177 1.78422 15.2809L18.4092 24.7809C18.5887 24.8835 18.7918 24.9374 18.9985 24.9374C19.2052 24.9374 19.4083 24.8835 19.5878 24.7809L34.2148 16.4231C34.2374 16.4101 34.2631 16.4032 34.2892 16.4032C34.3153 16.4033 34.341 16.4102 34.3635 16.4233C34.3861 16.4364 34.4048 16.4552 34.4178 16.4778C34.4308 16.5005 34.4376 16.5262 34.4375 16.5523V27.2791C34.4375 27.9181 34.9288 28.4666 35.5678 28.4985C35.7284 28.5062 35.8889 28.4813 36.0395 28.4252C36.1901 28.3691 36.3278 28.283 36.4442 28.1721C36.5606 28.0612 36.6532 27.9278 36.7165 27.7801C36.7798 27.6323 36.8125 27.4732 36.8125 27.3125V14.25C36.8124 14.2128 36.8104 14.1757 36.8066 14.1387Z" fill="white"/>
</svg>