<svg xmlns="http://www.w3.org/2000/svg" width="1351" height="1024" fill="none" viewBox="0 0 1351 1024">
    <path stroke="#B4B4B4" d="M35.5.008c-8.17 405.492 96.001 611.993-17 1024.002M104.502.008c-164 404.492-103.5 608.493-17 1024.002M18.5.008C175 400.5 101 625.501 1.5 1024.01M62 .008C218.5 400.5-41.5 608.501 45 1024.01M1272.5.008c-.3 14.943-.45 29.615-.46 44.037m0 0c-.05 51.807 1.66 100.388 4.37 146.682m-4.37-146.682c-5.2-14.448-10.71-29.12-16.54-44.037m16.54 44.037c9.41 26.163 17.82 51.588 25.27 76.38m-20.9 70.302c7.72 132.281 23.53 245.886 29.61 362.704m-29.61-362.704c6.13-22.834 13.07-46.229 20.9-70.302m-20.9 70.302c-55.03 205.01-43.95 364.792-7.25 563.372m36.86-200.668c3.43 65.909 3.77 132.84-2.2 204.726m2.2-204.726c14.48-63.303 29.11-125.444 37.39-189.835m-37.39 189.835c-14.74 64.482-29.32 130.169-36.86 200.668m34.66 4.058c-2.82 33.909-7.04 68.921-13 105.448m13-105.448c30.95-138.4 48.99-261.688 39.59-394.561m-39.59 394.561c-5.75 25.681-11.94 51.882-18.48 78.762m5.48 26.686c-5.13 31.487-11.56 64.099-19.49 98.101m19.49-98.101c-1.86-8.987-3.69-17.88-5.48-26.686m5.48 26.686c10.39 50.186 21.79 103.297 33.68 160.405m-53.17-62.304a1682.714 1682.714 0 0 1-15.83 62.304m15.83-62.304a844.485 844.485 0 0 1-5.05-48.035m5.05 48.035c2.71 20.258 6.24 41.004 10.67 62.304M1341.5.008c-7.98 19.68-15.43 38.884-22.37 57.661m0 0c-7.92 21.453-15.19 42.348-21.82 62.756m21.82-62.756c-5.76-18.787-12.44-37.992-20.13-57.66m20.13 57.66c34.92 113.753 36.33 212.223 24.28 305.927m-46.1-243.171c26.25 87.342 40.7 166.838 46.1 243.171m-74.25 390.503c4.96 26.83 10.39 54.367 16.18 82.82m-16.18-82.82c-5.38 50.304-7.17 103.058-2.88 159.572m19.06-76.752c-6.07 24.957-12.45 50.499-19.06 76.752m0 0c-8.9 35.385-18.22 72.061-27.78 110.339"/>
</svg>
